<svg width="22" height="22" viewBox="0 0 22 22" fill="none" xmlns="http://www.w3.org/2000/svg">
<path d="M12.6982 20.5718L11.6143 21.6558C11.1553 22.1147 10.4131 22.1147 9.95898 21.6558L0.466797 12.1685C0.0078125 11.7095 0.0078125 10.9673 0.466797 10.5132L9.95898 1.02099C10.418 0.56201 11.1602 0.56201 11.6143 1.02099L12.6982 2.10498C13.1621 2.56885 13.1523 3.32568 12.6787 3.77978L6.79492 9.38525H20.8281C21.4775 9.38525 22 9.90771 22 10.5571V12.1196C22 12.769 21.4775 13.2915 20.8281 13.2915H6.79492L12.6787 18.897C13.1572 19.3511 13.167 20.1079 12.6982 20.5718Z" fill="black"/>
</svg>
