<svg width="35" height="40" viewBox="0 0 35 40" fill="none" xmlns="http://www.w3.org/2000/svg">
<g clip-path="url(#clip0_155_1774)">
<path d="M3.75 1.875C3.75 0.835938 2.91406 0 1.875 0C0.835938 0 0 0.835938 0 1.875V5V27.3828V31.25V38.125C0 39.1641 0.835938 40 1.875 40C2.91406 40 3.75 39.1641 3.75 38.125V30.3125L10.0234 28.7422C13.2344 27.9375 16.6328 28.3125 19.5938 29.7891C23.0469 31.5156 27.0547 31.7266 30.6641 30.3672L33.375 29.3516C34.3516 28.9844 35 28.0547 35 27.0078V5.15625C35 3.35938 33.1094 2.1875 31.5 2.99219L30.75 3.36719C27.1328 5.17969 22.875 5.17969 19.2578 3.36719C16.5156 1.99219 13.3672 1.64844 10.3906 2.39062L3.75 4.0625V1.875ZM3.75 7.92969L11.2969 6.03906C13.4062 5.51563 15.6328 5.75781 17.5781 6.72656C21.8672 8.86719 26.8516 9.04688 31.25 7.25781V26.1484L29.3438 26.8594C26.7109 27.8438 23.7813 27.6953 21.2656 26.4375C17.5 24.5547 13.1953 24.0859 9.10938 25.1016L3.75 26.4453V7.92969Z" fill="#46E54E"/>
</g>
<defs>
<clipPath id="clip0_155_1774">
<rect width="35" height="40" fill="white"/>
</clipPath>
</defs>
</svg>
