<svg width="40" height="36" viewBox="0 0 40 36" fill="none" xmlns="http://www.w3.org/2000/svg">
<path d="M39.9895 17.7446C39.9895 18.9947 38.9478 19.9739 37.7671 19.9739H35.5447L35.5933 31.0999C35.5933 31.2874 35.5794 31.4749 35.5586 31.6624V32.7806C35.5586 34.3154 34.3154 35.5586 32.7806 35.5586H31.6694C31.593 35.5586 31.5166 35.5586 31.4402 35.5516C31.3429 35.5586 31.2457 35.5586 31.1485 35.5586H28.8913H27.2245C25.6897 35.5586 24.4465 34.3154 24.4465 32.7806V31.1138V26.6689C24.4465 25.4397 23.4534 24.4465 22.2241 24.4465H17.7793C16.55 24.4465 15.5569 25.4397 15.5569 26.6689V31.1138V32.7806C15.5569 34.3154 14.3137 35.5586 12.7789 35.5586H11.1121H8.89659C8.79242 35.5586 8.68824 35.5516 8.58406 35.5447C8.50072 35.5516 8.41738 35.5586 8.33404 35.5586H7.22284C5.68798 35.5586 4.44482 34.3154 4.44482 32.7806V25.0021C4.44482 24.9396 4.44482 24.8702 4.45177 24.8077V19.9739H2.22241C0.972305 19.9739 0 19.0016 0 17.7446C0 17.1195 0.208351 16.5639 0.694504 16.0778L18.5016 0.555603C18.9877 0.0694504 19.5433 0 20.0295 0C20.5156 0 21.0712 0.138901 21.4879 0.486153L39.2256 16.0778C39.7812 16.5639 40.059 17.1195 39.9895 17.7446Z" fill="white"/>
</svg>
