<svg width="25" height="25" viewBox="0 0 25 25" fill="none" xmlns="http://www.w3.org/2000/svg">
<g clip-path="url(#clip0_51_1502)">
<path d="M12.5 25C15.8152 25 18.9946 23.683 21.3388 21.3388C23.683 18.9946 25 15.8152 25 12.5C25 9.18479 23.683 6.00537 21.3388 3.66117C18.9946 1.31696 15.8152 0 12.5 0C9.18479 0 6.00537 1.31696 3.66117 3.66117C1.31696 6.00537 0 9.18479 0 12.5C0 15.8152 1.31696 18.9946 3.66117 21.3388C6.00537 23.683 9.18479 25 12.5 25ZM12.5 7.8125C13.7432 7.8125 14.9355 8.30636 15.8146 9.18544C16.6936 10.0645 17.1875 11.2568 17.1875 12.5C17.1875 13.7432 16.6936 14.9355 15.8146 15.8146C14.9355 16.6936 13.7432 17.1875 12.5 17.1875C11.2568 17.1875 10.0645 16.6936 9.18544 15.8146C8.30636 14.9355 7.8125 13.7432 7.8125 12.5C7.8125 11.2568 8.30636 10.0645 9.18544 9.18544C10.0645 8.30636 11.2568 7.8125 12.5 7.8125Z" fill="#E6B711"/>
</g>
<defs>
<clipPath id="clip0_51_1502">
<rect width="25" height="25" fill="white"/>
</clipPath>
</defs>
</svg>
