<svg width="25" height="25" viewBox="0 0 25 25" fill="none" xmlns="http://www.w3.org/2000/svg">
<path d="M17.9882 0.893555L15.2685 3.61816L21.3817 9.73145L24.1015 7.01172C25.1708 5.94238 25.1708 4.21387 24.1015 3.14453L21.8554 0.893555C20.786 -0.175781 19.0575 -0.175781 17.9882 0.893555ZM14.0624 4.61914L13.6132 4.75586L6.57706 6.86523C5.60538 7.1582 4.83389 7.90039 4.51163 8.86719L0.185456 21.7676C-9.05767e-05 22.3193 0.136628 22.9346 0.541902 23.3496L8.0419 15.8545C7.89542 15.5469 7.81241 15.2051 7.81241 14.8438C7.81241 13.5498 8.86221 12.5 10.1562 12.5C11.4501 12.5 12.4999 13.5498 12.4999 14.8438C12.4999 16.1377 11.4501 17.1875 10.1562 17.1875C9.79483 17.1875 9.45303 17.1045 9.14542 16.958L1.64542 24.458C2.06534 24.8633 2.67569 25.0049 3.22745 24.8145L16.1327 20.4883C17.0946 20.166 17.8417 19.3945 18.1347 18.4229L20.244 11.3867L20.3759 10.9375L14.0624 4.61914Z" fill="#E1E0E0"/>
</svg>
