<svg width="40" height="40" viewBox="0 0 40 40" fill="none" xmlns="http://www.w3.org/2000/svg">
<g clip-path="url(#clip0_155_1950)">
<path d="M20 40C25.3043 40 30.3914 37.8929 34.1421 34.1421C37.8929 30.3914 40 25.3043 40 20C40 14.6957 37.8929 9.60859 34.1421 5.85786C30.3914 2.10714 25.3043 0 20 0C14.6957 0 9.60859 2.10714 5.85786 5.85786C2.10714 9.60859 0 14.6957 0 20C0 25.3043 2.10714 30.3914 5.85786 34.1421C9.60859 37.8929 14.6957 40 20 40ZM13.6719 13.6719C14.4062 12.9375 15.5937 12.9375 16.3203 13.6719L19.9922 17.3438L23.6641 13.6719C24.3984 12.9375 25.5859 12.9375 26.3125 13.6719C27.0391 14.4062 27.0469 15.5937 26.3125 16.3203L22.6406 19.9922L26.3125 23.6641C27.0469 24.3984 27.0469 25.5859 26.3125 26.3125C25.5781 27.0391 24.3906 27.0469 23.6641 26.3125L19.9922 22.6406L16.3203 26.3125C15.5859 27.0469 14.3984 27.0469 13.6719 26.3125C12.9453 25.5781 12.9375 24.3906 13.6719 23.6641L17.3438 19.9922L13.6719 16.3203C12.9375 15.5859 12.9375 14.3984 13.6719 13.6719Z" fill="#C53030"/>
</g>
<defs>
<clipPath id="clip0_155_1950">
<rect width="40" height="40" fill="white"/>
</clipPath>
</defs>
</svg>
