<svg width="50" height="50" viewBox="0 0 50 50" fill="none" xmlns="http://www.w3.org/2000/svg">
<path d="M16.1107 15.9756L16.0054 16.273L16.0222 16.2899C15.6265 17.7106 16.4032 19.2294 17.8113 19.729C19.2811 20.2506 20.9163 19.4815 21.4384 17.998L21.4385 17.9981L21.4411 17.9901L21.4787 17.8774C21.4789 17.8768 21.4791 17.8763 21.4793 17.8757C21.5162 17.7706 21.6155 17.6973 21.7383 17.6973H27.4316C27.9682 17.6973 28.4062 18.1299 28.4062 18.6719C28.4062 19.0194 28.2194 19.3427 27.915 19.5176L23.5892 21.9979C22.7026 22.5062 22.1562 23.4424 22.1562 24.4629V25.7812C22.1562 27.3562 23.425 28.625 25 28.625C26.4531 28.625 27.656 27.5263 27.824 26.1215L30.7465 24.4475L30.7478 24.4468C32.8163 23.2543 34.0938 21.0484 34.0938 18.6621C34.0938 14.988 31.1165 12 27.4316 12H21.7383C19.212 12 16.9529 13.5983 16.1107 15.9756ZM42.3241 42.3241C37.7295 46.9188 31.4978 49.5 25 49.5C18.5022 49.5 12.2705 46.9188 7.67588 42.3241C3.08124 37.7295 0.5 31.4978 0.5 25C0.5 18.5022 3.08124 12.2705 7.67588 7.67588C12.2705 3.08124 18.5022 0.5 25 0.5C31.4978 0.5 37.7295 3.08124 42.3241 7.67588C46.9188 12.2705 49.5 18.5022 49.5 25C49.5 31.4978 46.9188 37.7295 42.3241 42.3241ZM22.4367 31.8117C21.7569 32.4916 21.375 33.4136 21.375 34.375C21.375 35.3364 21.7569 36.2584 22.4367 36.9383C23.1166 37.6181 24.0386 38 25 38C25.9614 38 26.8834 37.6181 27.5633 36.9383C28.2431 36.2584 28.625 35.3364 28.625 34.375C28.625 33.4136 28.2431 32.4916 27.5633 31.8117C26.8834 31.1319 25.9614 30.75 25 30.75C24.0386 30.75 23.1166 31.1319 22.4367 31.8117Z" fill="#E6B711" fill-opacity="0.5" stroke="#E6B711"/>
</svg>
