<svg width="35" height="40" viewBox="0 0 35 40" fill="none" xmlns="http://www.w3.org/2000/svg">
<path d="M10.75 15V15.5H11.25H23.75H24.25V15V11.25C24.25 7.52074 21.2293 4.50001 17.5 4.50001C13.7707 4.50001 10.75 7.52074 10.75 11.25V15ZM6.25 15.5H6.75V15V11.25C6.75 5.31521 11.5652 0.500007 17.5 0.500007C23.4348 0.500007 28.25 5.31521 28.25 11.25V15V15.5H28.75H30C32.4817 15.5 34.5 17.5183 34.5 20V35C34.5 37.4817 32.4817 39.5 30 39.5H5C2.51833 39.5 0.5 37.4817 0.5 35V20C0.5 17.5183 2.51833 15.5 5 15.5H6.25Z" fill="#E6B711" stroke="#E6B711"/>
</svg>
