<?xml version="1.0" standalone="no"?>
<!DOCTYPE svg PUBLIC "-//W3C//DTD SVG 20010904//EN"
 "http://www.w3.org/TR/2001/REC-SVG-20010904/DTD/svg10.dtd">
<svg version="1.0" xmlns="http://www.w3.org/2000/svg"
 width="429.000000pt" height="195.000000pt" viewBox="0 0 429.000000 195.000000"
 preserveAspectRatio="xMidYMid meet">

<g transform="translate(0.000000,195.000000) scale(0.100000,-0.100000)"
fill="#000000" stroke="none">
<path d="M3254 1835 c-349 -61 -583 -288 -699 -676 -56 -186 -74 -460 -41
-620 48 -226 206 -387 436 -443 317 -77 645 -18 857 154 159 129 281 355 345
641 18 85 23 134 23 264 0 186 -9 232 -71 361 -76 160 -194 253 -384 305 -100
27 -349 35 -466 14z m281 -369 c78 -42 109 -119 107 -266 -2 -229 -98 -552
-197 -668 -123 -143 -313 -132 -390 23 -28 57 -30 66 -29 175 2 179 70 455
144 585 30 52 107 132 149 154 61 33 151 32 216 -3z"/>
<path d="M2650 1823 c-6 -10 -33 -67 -60 -128 l-49 -110 66 -3 c36 -2 71 -1
78 1 6 3 45 53 85 112 41 58 81 115 89 126 13 18 10 19 -93 19 -90 0 -107 -3
-116 -17z"/>
<path d="M1651 1473 c-9 -18 -61 -201 -61 -215 0 -5 60 -8 134 -8 l133 0 -63
-262 c-34 -145 -81 -336 -103 -425 -23 -89 -41 -169 -41 -178 0 -13 23 -15
169 -15 153 0 170 2 175 18 3 9 22 94 41 187 34 159 140 619 151 658 5 15 20
17 124 17 l119 0 17 58 c9 31 22 79 30 106 8 27 14 56 14 63 0 11 -78 13 -415
13 -384 0 -415 -1 -424 -17z"/>
<path d="M352 1228 c-10 -13 -52 -194 -52 -225 0 -14 15 -15 147 -9 81 4 150
9 154 12 6 3 59 211 59 229 0 3 -67 5 -149 5 -107 0 -151 -4 -159 -12z"/>
<path d="M770 1128 c-6 -24 -39 -144 -72 -268 -88 -323 -90 -423 -12 -510 70
-78 229 -118 418 -107 273 17 376 101 460 377 38 128 146 523 146 538 0 10
-33 12 -146 10 l-146 -3 -55 -200 c-131 -485 -155 -530 -284 -530 -56 0 -63 3
-90 33 -20 22 -29 43 -29 67 0 38 56 261 120 478 22 76 40 142 40 147 0 6 -66
10 -170 10 l-169 0 -11 -42z"/>
<path d="M338 893 l-77 -4 -5 -32 c-33 -218 -55 -328 -104 -525 -32 -128 -55
-235 -52 -237 3 -2 76 -1 163 2 l157 6 6 36 c17 103 71 360 115 544 27 115 49
211 49 213 0 4 -116 3 -252 -3z"/>
<path d="M2140 229 c0 -5 5 -7 10 -4 6 3 10 8 10 11 0 2 -4 4 -10 4 -5 0 -10
-5 -10 -11z"/>
<path d="M1760 213 c0 -5 -22 -6 -50 -5 -32 3 -50 0 -50 -7 0 -6 6 -11 14 -11
11 0 12 -8 5 -37 -12 -52 -11 -63 4 -63 8 0 17 19 23 48 8 43 12 47 37 47 17
0 32 7 38 18 8 13 6 17 -6 17 -8 0 -15 -3 -15 -7z"/>
<path d="M1496 198 c-12 -39 -24 -103 -21 -106 13 -13 33 12 39 46 3 22 9 47
12 56 4 11 1 16 -10 16 -9 0 -18 -6 -20 -12z"/>
<path d="M1544 165 c-9 -62 -1 -77 38 -73 35 3 50 23 63 86 5 25 3 32 -9 32
-9 0 -16 -6 -16 -12 0 -35 -22 -88 -37 -88 -13 0 -14 8 -9 50 5 40 4 50 -8 50
-10 0 -17 -15 -22 -45z"/>
<path d="M1808 193 c-41 -47 -29 -103 22 -103 37 0 63 36 58 82 -3 29 -7 33
-34 36 -19 2 -36 -3 -46 -15z m70 -25 c5 -38 -14 -68 -43 -68 -28 0 -45 24
-37 54 8 34 24 47 51 44 20 -2 27 -9 29 -30z"/>
<path d="M1927 203 c-2 -5 -7 -25 -11 -46 -4 -21 -10 -46 -13 -55 -4 -12 -3
-14 5 -7 5 6 14 30 19 55 7 36 13 46 31 48 29 4 31 -33 1 -41 -20 -5 -20 -7
-4 -37 9 -18 19 -30 21 -27 3 3 0 14 -7 25 -10 16 -9 22 9 40 27 27 19 52 -18
52 -16 0 -31 -3 -33 -7z"/>
<path d="M2027 203 c-2 -4 -7 -25 -11 -46 -4 -21 -10 -45 -13 -53 -4 -10 3
-14 28 -13 24 1 27 3 12 6 -25 5 -28 20 -13 72 9 33 8 52 -3 34z"/>
<path d="M2096 173 c-3 -21 -9 -48 -12 -60 -6 -21 -3 -23 32 -21 35 1 36 2 8
5 -27 4 -30 7 -26 29 3 19 11 24 36 25 30 2 30 2 4 6 -42 6 -38 40 5 46 l32 4
-36 1 c-35 2 -37 0 -43 -35z"/>
<path d="M2190 154 c-18 -30 -30 -58 -27 -60 3 -3 8 4 12 15 9 31 65 30 65 -1
0 -12 2 -19 5 -16 8 8 -7 118 -16 118 -4 0 -22 -25 -39 -56z m40 16 c0 -20 -5
-30 -15 -30 -18 0 -18 2 -3 35 15 32 18 32 18 -5z"/>
<path d="M2281 166 c-6 -25 -11 -53 -10 -63 1 -10 5 0 10 22 16 71 20 73 38
21 10 -28 22 -51 28 -53 6 -2 14 17 18 43 3 26 9 54 11 63 3 9 0 7 -5 -4 -5
-11 -13 -36 -18 -55 l-9 -35 -18 53 c-10 28 -21 52 -26 52 -4 0 -13 -20 -19
-44z"/>
<path d="M2407 203 c-15 -14 -6 -41 18 -57 33 -22 23 -49 -16 -44 -16 3 -29 1
-29 -4 0 -18 59 -8 70 12 9 16 6 24 -15 42 -34 29 -32 46 8 51 l32 4 -31 1
c-17 1 -34 -1 -37 -5z"/>
</g>
</svg>
